PathFileType	4	(X/Y/Z)	Patient5_TMGait_0pt45_1_left_04.trc.trc
DataRate	CameraRate	NumFrames	NumMarkers	Units	OrigDataRate	OrigDataStartFrame	OrigNumFrames
58.823529411765	58.823529411765	4	32	mm	58.823529411765	36	       141
Frame#	Time	R.ASIS			L.ASIS			Chest			R.Shoulder			Neck			L.Shoulder			L.Elbow			L.Wrist			R.Elbow			R.Wrist			L.Thigh.Superior			L.Thigh.Lateral			L.Thigh.Inferior			L.Patella			L.Shank.Superior			L.Shank.Lateral			L.Shank.Inferior			L.Heel			L.Midfoot.Lateral			L.Midfoot.Superior			L.Toe			R.Thigh.Superior			R.Thigh.Lateral			R.Thigh.Inferior			R.Patella			R.Shank.Superior			R.Shank.Lateral			R.Shank.Inferior			R.Heel			R.Midfoot.Lateral			R.Midfoot.Superior			R.Toe			
		X1	Y1	Z1	X2	Y2	Z2	X3	Y3	Z3	X4	Y4	Z4	X5	Y5	Z5	X6	Y6	Z6	X7	Y7	Z7	X8	Y8	Z8	X9	Y9	Z9	X10	Y10	Z10	X11	Y11	Z11	X12	Y12	Z12	X13	Y13	Z13	X14	Y14	Z14	X15	Y15	Z15	X16	Y16	Z16	X17	Y17	Z17	X18	Y18	Z18	X19	Y19	Z19	X20	Y20	Z20	X21	Y21	Z21	X22	Y22	Z22	X23	Y23	Z23	X24	Y24	Z24	X25	Y25	Z25	X26	Y26	Z26	X27	Y27	Z27	X28	Y28	Z28	X29	Y29	Z29	X30	Y30	Z30	X31	Y31	Z31	X32	Y32	Z32	

36	5.695000000000	951.680076264557	976.939893509971	578.494657385295	985.328919282134	958.108942437986	342.450856588442	1041.392210192442	1435.744402148492	465.260898560258	924.977896389419	1501.657707392569	620.408686692846	912.801821206203	1555.100383783462	431.612383328696	998.298008279854	1496.619862257024	260.964788885980	920.796142214812	1176.476931324170	135.794661685021	1034.491941577360	912.957773449019	138.649366063906	827.359766348625	1183.691898565904	754.013396735694	1036.515262500426	983.676801466034	726.698810259552	1039.714364514992	757.376172371922	329.154841621943	986.596368786415	673.864820778108	284.706518976967	1064.928434925214	634.698088438191	357.774570767343	1089.898371712488	519.303820968155	367.303053780974	1053.794979871384	409.300597615503	381.793824139821	1001.966395014110	334.467546218037	297.368348245152	1034.809520883994	283.291851925332	386.738279698910	927.535572098126	49.197520228442	386.609278698728	1013.912487851443	27.166085426415	321.819702202481	1111.664397593838	90.032712703728	364.194713139250	1219.243503788911	48.181598642755	364.093814598262	940.019906946673	740.555273745258	604.132975486143	835.419059365597	675.696831721961	646.199785973679	916.936337287592	608.961868102647	587.357393928931	896.501588571933	507.879754676908	617.157994982604	824.272725667884	416.888365833685	571.726041461388	726.026344566296	377.897955262373	643.089933466210	762.601071839810	291.510726060728	567.730171906815	574.335201584256	105.765834607772	522.275202206286	638.627549235300	54.256594706530	597.002190335029	756.666434192949	93.456205306663	587.107261579026	845.016863230300	41.475625034803	587.124380864349	
37	5.712000000000	951.257281192737	979.365950587296	575.676839029112	987.023553195871	959.026285286311	339.575944337495	1042.000110360985	1437.158875689651	462.803335682600	923.218677430534	1503.345477352070	615.918865070317	914.243303042855	1556.702367463155	426.940870393066	1002.743993120114	1498.123183580994	257.953825682444	927.740957258850	1178.241188886361	130.693890924959	1043.037920144568	915.530319321854	135.143431111276	824.019637686618	1185.455488146885	748.437699619509	1032.942704065651	985.140380289910	721.962734881920	1039.375829203845	757.083335725017	326.652791287548	985.149360479949	673.984207460677	281.923226848074	1062.511643605863	634.027343989695	355.373099313672	1085.945566094185	518.413227135335	365.182340067329	1048.943348670696	408.809613281682	379.991653176832	996.676085232431	333.987757977839	295.850549006880	1028.917690675096	283.028934186688	385.508848412506	920.038496441229	49.205130084659	386.377885783448	1006.413226255894	27.095091041639	321.627695440743	1104.206334536571	89.939904408394	364.048195844661	1211.825774731919	47.945377477303	364.090794868685	944.073453080482	743.978320136199	604.586021284477	841.017248077150	677.517137828076	646.452270774713	924.912809771979	611.491732236770	589.801892358849	905.516800851202	509.336148277376	620.582799537629	830.840809018871	418.145898283829	574.672614120549	731.088128069655	381.578184425120	645.632418931454	765.218135345874	294.463959228400	570.103988217783	571.561015195520	116.635829879495	524.022132995684	633.590510848177	61.223431502270	597.882071039193	753.158029443183	95.557916109140	588.812141966523	838.762510976275	41.299919445917	587.578776173288	
38	5.729000000000	951.070758396212	981.927948116288	573.547111417483	988.310060857595	959.847057630360	336.792653874256	1042.236994876571	1438.390324730266	460.351331840180	921.133153459825	1504.819609179053	611.442846567369	915.377983079108	1558.133754314302	422.341145606141	1006.831619499385	1499.496463075755	255.064133032423	934.837333498172	1179.880578864121	125.528394761811	1051.861609194905	918.061327079435	131.860330601420	820.787130586986	1186.912995227356	742.935914942904	1029.575502909793	986.457851569622	717.321142420888	1038.688380034817	756.969544389824	324.869452545791	983.692047188754	674.304229008463	279.460069361764	1059.857285040775	633.425550120048	353.399007099919	1081.676380733440	517.531478178934	363.226633973974	1043.842687277541	408.325511492080	378.259620861132	991.212448257032	333.511554869314	294.363825672522	1022.859389344030	282.758349655036	384.299094000315	912.473663987966	49.232739559819	386.146661157862	998.845309541837	27.016628434046	321.437126002114	1096.702991050136	89.793547590205	363.914681776012	1204.345007759468	47.653865839080	364.103484501896	948.335820981684	747.547093629367	605.138048046469	847.249991601407	679.334658784958	647.126374162397	933.471381021220	614.257977546173	592.502749081654	915.282405278792	511.028273859359	624.230060224685	838.256504170973	419.765539880359	577.946917428623	737.156474529994	385.616078180135	648.649798641775	768.618788236187	297.909326666936	572.704295633995	569.775598900306	128.775014283488	526.033828008524	629.127427696695	69.327779178181	598.907781956818	750.117264581333	98.379209214185	590.654501503249	832.774751547825	41.096946693862	588.206863065469	
39	5.746000000000	951.271741556250	984.701011857931	572.168305215738	989.200108086273	960.619936188266	334.065211133472	1042.096369072756	1439.497583298559	457.890164488147	918.781409782379	1506.140808309288	607.029659618368	916.171716482984	1559.442802924293	417.868905178762	1010.403188137598	1500.762002150140	252.284072311757	942.039970716019	1181.358117776086	120.426718596839	1060.921825282711	920.520665403881	128.796279253393	817.500660992860	1188.096796424031	737.398923718501	1026.323094441546	987.675409790514	712.884417855966	1037.686585907595	756.963510099269	323.478999489416	982.102190102968	674.740949337761	277.285483157081	1057.031667860097	632.881969029276	351.682131157236	1077.203262733636	516.686592763228	361.418270823740	1038.597869946306	407.867751719651	376.635777517211	985.613191854271	333.067634755383	292.982165289858	1016.697752211502	282.500802064496	383.151509406311	904.851575052746	49.266036287609	385.922208508360	991.221627045193	26.946964593602	321.244975386128	1089.149684846555	89.631783583957	363.779760747872	1196.802830962293	47.366773210398	364.094683345275	952.657065363877	751.301773188244	605.607120470826	853.903063891478	681.284689275616	648.139503746625	942.313651904131	617.347484285152	595.297931996772	925.486158304007	513.096640514157	627.950278435905	846.263677687612	421.859963574351	581.406683598521	743.987276281471	390.103610030808	651.995016116446	772.667981797263	301.935407044228	575.426483491775	569.039233554991	142.135640388819	528.206935140763	625.250486165593	78.592272226734	599.996469808915	747.519076217132	101.977713229141	592.584312744696	826.984315805226	40.845237341671	588.985046387866	
